<svg width="243" height="73" viewBox="0 0 243 73" fill="none" xmlns="http://www.w3.org/2000/svg">
<path d="M10.755 51.4246H232.371C237.858 51.4246 242.306 46.9772 242.306 41.4896V10.4011C242.306 4.91469 237.858 0.466297 232.371 0.466297H10.755C5.26793 0.466297 0.820068 4.91469 0.820068 10.4011V41.4896C0.820068 46.9772 5.26793 51.4246 10.755 51.4246Z" fill="#BE00FF"/>
<path d="M180.45 23.5469H166.911V19.212H180.45C181.644 19.212 182.616 20.1854 182.616 21.3802C182.616 22.5745 181.644 23.5469 180.45 23.5469ZM180.45 32.6354H166.911V28.3005H180.45C181.644 28.3005 182.616 29.2724 182.616 30.4677C182.616 31.6625 181.644 32.6354 180.45 32.6354ZM184.746 25.9234C186.375 24.7324 187.334 22.861 187.334 20.8256C187.334 17.336 184.494 14.4969 181.003 14.4969H163.922C162.97 14.4969 162.194 15.2724 162.194 16.225V35.6224C162.194 36.575 162.97 37.3501 163.922 37.3501H181.003C184.494 37.3501 187.334 34.511 187.334 31.022C187.334 28.987 186.375 27.1157 184.746 25.9234Z" fill="white"/>
<path d="M153.271 22.687C153.271 24.3162 151.945 25.6412 150.316 25.6412H137.565V19.2125H150.316C151.945 19.2125 153.271 20.5376 153.271 22.1677V22.687ZM157.988 22.9698V21.8844C157.988 17.811 154.673 14.4969 150.597 14.4969H134.576C133.624 14.4969 132.848 15.272 132.848 16.2245V35.5838C132.848 36.537 133.624 37.3114 134.576 37.3114H135.837C136.789 37.3114 137.565 36.537 137.565 35.5838V30.3573H145.859L152.659 36.4266C153.325 37.0224 154.185 37.3501 155.079 37.3501H156.257C156.981 37.3501 157.615 36.9136 157.872 36.2381C158.129 35.563 157.948 34.8152 157.408 34.3338L152.632 30.0704C155.772 29.175 157.988 26.2849 157.988 22.9698Z" fill="white"/>
<path d="M223.463 27.3434C223.463 30.2397 221.107 32.5965 218.208 32.5965H207.757V19.2126H218.208C221.107 19.2126 223.463 21.5689 223.463 24.4653V27.3434ZM218.229 14.497H204.768C203.816 14.497 203.04 15.2721 203.04 16.2246V35.5839C203.04 36.5366 203.816 37.3115 204.768 37.3115H218.229C223.716 37.3115 228.18 32.8497 228.18 27.3642V24.4454C228.18 18.9601 223.716 14.497 218.229 14.497Z" fill="white"/>
<path d="M194.556 37.3115C193.604 37.3115 192.828 36.5366 192.828 35.5839V16.2251C192.828 15.2725 193.604 14.4975 194.556 14.4975H195.817C196.771 14.4975 197.545 15.2725 197.545 16.2251V35.5839C197.545 36.5366 196.771 37.3115 195.817 37.3115H194.556Z" fill="white"/>
<path d="M105.1 37.3115C104.147 37.3115 103.372 36.5366 103.372 35.5839V16.2251C103.372 15.2725 104.147 14.4975 105.1 14.4975H126.784C127.736 14.4975 128.512 15.2725 128.512 16.2251V17.4845C128.512 18.4377 127.736 19.2121 126.784 19.2121H108.089V23.547H121.351C122.304 23.547 123.08 24.3221 123.08 25.2746V26.5345C123.08 27.4877 122.304 28.2621 121.351 28.2621H108.089V32.597H126.784C127.736 32.597 128.512 33.3715 128.512 34.3246V35.5839C128.512 36.5366 127.736 37.3115 126.784 37.3115H105.1Z" fill="white"/>
<path d="M94.319 22.6293C94.319 24.2579 92.994 25.5839 91.3643 25.5839H78.6132V19.2126H91.3643C92.994 19.2126 94.319 20.5377 94.319 22.1678V22.6293ZM91.6471 14.497H75.6236C74.6716 14.497 73.8955 15.2721 73.8955 16.2246V35.5839C73.8955 36.5366 74.6716 37.3115 75.6236 37.3115H76.8851C77.8378 37.3115 78.6132 36.5366 78.6132 35.5839V30.3574H91.6471C95.7216 30.3574 99.0367 27.0434 99.0367 22.9705V21.8845C99.0367 17.8111 95.7216 14.497 91.6471 14.497Z" fill="white"/>
<path d="M54.3711 37.3115C48.8846 37.3115 44.4211 32.8486 44.4211 27.3647V16.2251C44.4211 15.2725 45.1961 14.4975 46.1487 14.4975H47.4097C48.3613 14.4975 49.1362 15.2725 49.1362 16.2251V27.3986C49.1362 30.2653 51.4685 32.597 54.3357 32.597H59.5889C62.4867 32.597 64.8435 30.2402 64.8435 27.3439V16.2251C64.8435 15.2725 65.6195 14.4975 66.5717 14.4975H67.8326C68.7857 14.4975 69.5613 15.2725 69.5613 16.2251V27.3647C69.5613 32.8486 65.0971 37.3115 59.6097 37.3115H54.3711Z" fill="white"/>
<path d="M16.6727 37.3115C15.72 37.3115 14.9451 36.5366 14.9451 35.5839V34.3246C14.9451 33.3715 15.72 32.597 16.6727 32.597H33.7257C34.6304 32.597 35.3684 31.8595 35.3684 30.9543V29.9043C35.3684 28.9991 34.6304 28.2621 33.7257 28.2621H20.1992C17.3017 28.2621 14.9451 25.9058 14.9451 23.0095V19.7506C14.9451 16.8543 17.3017 14.4975 20.1992 14.4975H38.3569C39.3096 14.4975 40.0851 15.2725 40.0851 16.2251V17.4845C40.0851 18.4377 39.3096 19.2121 38.3569 19.2121H21.3044C20.3981 19.2121 19.6617 19.9497 19.6617 20.8549V21.9054C19.6617 22.8106 20.3981 23.547 21.3044 23.547H34.8304C37.7279 23.547 40.0851 25.9038 40.0851 28.8006V32.0585C40.0851 34.9549 37.7279 37.3115 34.8304 37.3115H16.6727Z" fill="white"/>
<path d="M29.8878 9.82454C29.8878 11.1245 28.8342 12.1777 27.5342 12.1777C26.2337 12.1777 25.1799 11.1245 25.1799 9.82454C25.1799 8.52454 26.2337 7.47201 27.5342 7.47201C28.8342 7.47201 29.8878 8.52454 29.8878 9.82454Z" fill="white"/>
<path d="M25.1799 42.0112C25.1799 40.7112 26.2337 39.658 27.5337 39.658C28.8342 39.658 29.8878 40.7112 29.8878 42.0112C29.8878 43.3112 28.8342 44.3643 27.5337 44.3643C26.2337 44.3643 25.1799 43.3112 25.1799 42.0112Z" fill="white"/>
<path d="M134.044 72.3557C133.696 72.3557 133.429 72.2636 133.245 72.0786C133.06 71.8944 132.969 71.6286 132.969 71.2802V62.2824C132.969 61.9349 133.06 61.6682 133.245 61.4838C133.429 61.2996 133.696 61.2068 134.044 61.2068H139.689C139.952 61.2068 140.156 61.2756 140.299 61.413C140.44 61.5501 140.512 61.7448 140.512 61.998C140.512 62.2614 140.44 62.4641 140.299 62.6068C140.156 62.749 139.952 62.8204 139.689 62.8204H134.913V65.8881H139.341C139.615 65.8881 139.821 65.9568 139.959 66.0933C140.095 66.2308 140.164 66.4308 140.164 66.6944C140.164 66.9584 140.095 67.1589 139.959 67.2953C139.821 67.4329 139.615 67.501 139.341 67.501H134.913V70.7428H139.689C139.952 70.7428 140.156 70.811 140.299 70.9485C140.44 71.0854 140.512 71.286 140.512 71.5496C140.512 71.813 140.44 72.013 140.299 72.1505C140.156 72.287 139.952 72.3557 139.689 72.3557H134.044Z" fill="#BE00FF"/>
<path d="M144.707 72.4824C144.443 72.4824 144.227 72.4111 144.059 72.2683C143.889 72.1267 143.792 71.9475 143.766 71.7314C143.74 71.5152 143.811 71.2964 143.98 71.0746L147.602 66.2516V67.1215L144.154 62.5038C143.984 62.2724 143.911 62.048 143.932 61.8319C143.952 61.6163 144.048 61.4366 144.216 61.2944C144.386 61.1516 144.596 61.0808 144.85 61.0808C145.06 61.0808 145.247 61.1308 145.411 61.2308C145.574 61.3314 145.74 61.4975 145.908 61.7287L148.755 65.6511H148.107L150.938 61.7287C151.106 61.4975 151.272 61.3314 151.435 61.2308C151.599 61.1308 151.791 61.0808 152.012 61.0808C152.276 61.0808 152.492 61.1496 152.662 61.286C152.83 61.423 152.924 61.6002 152.946 61.8158C152.967 62.0324 152.888 62.2611 152.708 62.5038L149.262 67.1215V66.2516L152.867 71.0746C153.035 71.2964 153.11 71.5152 153.088 71.7314C153.067 71.9475 152.972 72.1267 152.803 72.2683C152.635 72.4111 152.414 72.4824 152.139 72.4824C151.939 72.4824 151.758 72.4298 151.594 72.324C151.431 72.2188 151.259 72.0502 151.079 71.8183L148.075 67.7068H148.771L145.782 71.8183C145.614 72.0502 145.444 72.2188 145.276 72.324C145.108 72.4298 144.917 72.4824 144.707 72.4824Z" fill="#BE00FF"/>
<path d="M161.08 72.5137C159.92 72.5137 158.927 72.2793 158.099 71.8101C157.272 71.3413 156.638 70.6773 156.194 69.8178C155.751 68.959 155.53 67.9439 155.53 66.7735C155.53 65.8986 155.656 65.1111 155.91 64.4095C156.162 63.7085 156.526 63.1074 157 62.6069C157.475 62.1058 158.058 61.7215 158.748 61.4522C159.438 61.1835 160.216 61.0491 161.08 61.0491C161.66 61.0491 162.23 61.1225 162.788 61.2705C163.347 61.4178 163.838 61.6287 164.259 61.9033C164.48 62.0402 164.628 62.2063 164.702 62.4011C164.775 62.5965 164.791 62.7861 164.75 62.9705C164.707 63.1554 164.619 63.3106 164.488 63.4366C164.356 63.5631 164.194 63.6345 163.998 63.6506C163.803 63.6663 163.59 63.6002 163.358 63.4527C163.031 63.2418 162.678 63.0891 162.298 62.9945C161.919 62.8997 161.534 62.8522 161.143 62.8522C160.395 62.8522 159.763 63.0049 159.246 63.3106C158.73 63.6169 158.339 64.059 158.075 64.6387C157.812 65.2189 157.68 65.9303 157.68 66.7735C157.68 67.6069 157.812 68.3178 158.075 68.9085C158.339 69.4991 158.73 69.947 159.246 70.2527C159.763 70.5585 160.395 70.7111 161.143 70.7111C161.544 70.7111 161.939 70.6615 162.33 70.5611C162.72 70.4611 163.088 70.3054 163.436 70.0949C163.668 69.9574 163.876 69.8965 164.062 69.9126C164.246 69.9287 164.402 69.9945 164.528 70.1101C164.654 70.2262 164.739 70.371 164.78 70.5449C164.823 70.7189 164.812 70.8986 164.75 71.083C164.686 71.2673 164.559 71.4282 164.37 71.5653C163.948 71.8715 163.444 72.1054 162.859 72.2689C162.275 72.4325 161.682 72.5137 161.08 72.5137Z" fill="#BE00FF"/>
<path d="M169.05 72.4824C168.724 72.4824 168.474 72.3896 168.299 72.2054C168.126 72.021 168.038 71.7658 168.038 71.4387V62.1246C168.038 61.7871 168.126 61.5292 168.299 61.3496C168.474 61.1704 168.724 61.0808 169.05 61.0808C169.376 61.0808 169.627 61.1704 169.802 61.3496C169.975 61.5292 170.062 61.7871 170.062 62.1246V65.8563H175.803V62.1246C175.803 61.7871 175.89 61.5292 176.063 61.3496C176.238 61.1704 176.488 61.0808 176.815 61.0808C177.142 61.0808 177.392 61.1704 177.566 61.3496C177.74 61.5292 177.827 61.7871 177.827 62.1246V71.4387C177.827 71.7658 177.74 72.021 177.566 72.2054C177.392 72.3896 177.142 72.4824 176.815 72.4824C176.488 72.4824 176.238 72.3896 176.063 72.2054C175.89 72.021 175.803 71.7658 175.803 71.4387V67.5486H170.062V71.4387C170.062 71.7658 169.978 72.021 169.81 72.2054C169.64 72.3896 169.388 72.4824 169.05 72.4824Z" fill="#BE00FF"/>
<path d="M181.83 72.4824C181.576 72.4824 181.372 72.424 181.22 72.3084C181.067 72.1928 180.975 72.0371 180.943 71.8412C180.912 71.6464 180.948 71.4282 181.054 71.1855L185.23 61.9344C185.366 61.6287 185.532 61.4106 185.727 61.2782C185.922 61.1464 186.147 61.0808 186.399 61.0808C186.642 61.0808 186.86 61.1464 187.055 61.2782C187.251 61.4106 187.416 61.6287 187.554 61.9344L191.744 71.1855C191.86 71.4282 191.903 71.6491 191.871 71.8496C191.839 72.0502 191.75 72.2054 191.602 72.3163C191.454 72.4267 191.259 72.4824 191.016 72.4824C190.722 72.4824 190.492 72.4111 190.328 72.2683C190.166 72.1267 190.02 71.9079 189.894 71.6126L188.867 69.2246L189.72 69.7782H183.047L183.9 69.2246L182.888 71.6126C182.752 71.9183 182.61 72.1396 182.462 72.2767C182.314 72.4136 182.103 72.4824 181.83 72.4824ZM186.367 63.4054L184.154 68.6715L183.743 68.1652H189.024L188.628 68.6715L186.399 63.4054H186.367Z" fill="#BE00FF"/>
<path d="M195.88 72.4824C195.575 72.4824 195.34 72.398 195.177 72.2292C195.013 72.0611 194.932 71.8183 194.932 71.5016V62.0928C194.932 61.7663 195.013 61.5158 195.177 61.3418C195.34 61.1678 195.553 61.0808 195.817 61.0808C196.06 61.0808 196.241 61.1256 196.363 61.2158C196.484 61.3048 196.629 61.4554 196.797 61.6658L202.855 69.5251H202.443V62.0448C202.443 61.7391 202.524 61.5027 202.688 61.3339C202.852 61.1652 203.087 61.0808 203.392 61.0808C203.697 61.0808 203.929 61.1652 204.088 61.3339C204.247 61.5027 204.325 61.7391 204.325 62.0448V71.5335C204.325 71.8287 204.251 72.0611 204.104 72.2292C203.956 72.398 203.756 72.4824 203.503 72.4824C203.26 72.4824 203.068 72.4344 202.925 72.3402C202.783 72.2454 202.628 72.0923 202.459 71.8814L196.419 64.022H196.813V71.5016C196.813 71.8183 196.735 72.0611 196.576 72.2292C196.419 72.398 196.187 72.4824 195.88 72.4824Z" fill="#BE00FF"/>
<path d="M213.619 72.5137C212.384 72.5137 211.344 72.2825 210.495 71.8178C209.647 71.3543 209.002 70.6954 208.559 69.8418C208.115 68.9877 207.894 67.9757 207.894 66.8054C207.894 65.9194 208.023 65.1235 208.282 64.4173C208.54 63.7111 208.915 63.1074 209.404 62.6069C209.895 62.1058 210.492 61.7215 211.199 61.4522C211.906 61.1835 212.707 61.0491 213.603 61.0491C214.194 61.0491 214.787 61.1205 215.382 61.2621C215.978 61.4054 216.539 61.6449 217.066 61.9825C217.244 62.0981 217.364 62.2407 217.422 62.4095C217.479 62.5778 217.487 62.7491 217.446 62.9225C217.403 63.0965 217.324 63.247 217.208 63.3735C217.092 63.5002 216.948 63.5793 216.774 63.6106C216.6 63.6423 216.407 63.6002 216.196 63.4845C215.795 63.2527 215.39 63.0839 214.979 62.9782C214.568 62.873 214.108 62.8205 213.603 62.8205C212.823 62.8205 212.164 62.9762 211.627 63.2871C211.088 63.5975 210.686 64.0486 210.416 64.6387C210.147 65.2293 210.014 65.9511 210.014 66.8054C210.014 68.1017 210.324 69.0882 210.947 69.7621C211.568 70.4371 212.49 70.7746 213.714 70.7746C214.135 70.7746 214.562 70.7325 214.995 70.6481C215.427 70.5631 215.848 70.4475 216.26 70.3002L215.864 71.2017V67.833H214.124C213.862 67.833 213.659 67.7647 213.516 67.6278C213.374 67.4902 213.303 67.3058 213.303 67.0735C213.303 66.8319 213.374 66.6465 213.516 66.5205C213.659 66.3939 213.862 66.3309 214.124 66.3309H216.734C216.998 66.3309 217.2 66.4022 217.343 66.5445C217.486 66.6866 217.556 66.8891 217.556 67.1527V70.9959C217.556 71.2282 217.511 71.423 217.422 71.5809C217.332 71.7391 217.187 71.8554 216.987 71.9287C216.523 72.0981 215.991 72.2371 215.39 72.3481C214.788 72.4579 214.198 72.5137 213.619 72.5137Z" fill="#BE00FF"/>
<path d="M222.439 72.3557C222.091 72.3557 221.824 72.2636 221.64 72.0786C221.456 71.8944 221.364 71.6286 221.364 71.2802V62.2824C221.364 61.9349 221.456 61.6682 221.64 61.4838C221.824 61.2996 222.091 61.2068 222.439 61.2068H228.084C228.348 61.2068 228.551 61.2756 228.694 61.413C228.836 61.5501 228.907 61.7448 228.907 61.998C228.907 62.2614 228.836 62.4641 228.694 62.6068C228.551 62.749 228.348 62.8204 228.084 62.8204H223.31V65.8881H227.736C228.011 65.8881 228.216 65.9568 228.354 66.0933C228.49 66.2308 228.559 66.4308 228.559 66.6944C228.559 66.9584 228.49 67.1589 228.354 67.2953C228.216 67.4329 228.011 67.501 227.736 67.501H223.31V70.7428H228.084C228.348 70.7428 228.551 70.811 228.694 70.9485C228.836 71.0854 228.907 71.286 228.907 71.5496C228.907 71.813 228.836 72.013 228.694 72.1505C228.551 72.287 228.348 72.3557 228.084 72.3557H222.439Z" fill="#BE00FF"/>
</svg>
